<svg width="48" height="49" viewBox="0 0 48 49" fill="none" xmlns="http://www.w3.org/2000/svg">
<g clip-path="url(#clip0_169_10661)">
<path d="M48 41.6885H45.72V46.2635H48V41.6885Z" fill="#F03D3E"/>
<path d="M45.72 37.1135H43.425V41.6885H45.72V37.1135Z" fill="#F03D3E"/>
<path d="M45.72 46.2634H2.28003V48.5434H45.72V46.2634Z" fill="#F03D3E"/>
<path d="M43.425 32.5385H41.145V37.1135H43.425V32.5385Z" fill="#F03D3E"/>
<path d="M41.145 27.9785H38.85V32.5385H41.145V27.9785Z" fill="#F03D3E"/>
<path d="M38.85 23.4034H36.57V27.9784H38.85V23.4034Z" fill="#F03D3E"/>
<path d="M36.57 18.8284H34.29V23.4034H36.57V18.8284Z" fill="#F03D3E"/>
<path d="M34.29 14.2535H31.995V18.8285H34.29V14.2535Z" fill="#F03D3E"/>
<path d="M31.995 9.67847H29.715V14.2535H31.995V9.67847Z" fill="#F03D3E"/>
<path d="M29.715 5.11847H27.435V9.67847H29.715V5.11847Z" fill="#F03D3E"/>
<path d="M27.435 32.5385H20.565V34.8335H18.285V41.6885H20.565V43.9685H27.435V41.6885H29.715V34.8335H27.435V32.5385Z" fill="#F03D3E"/>
<path d="M27.435 14.2535H20.565V16.5485H18.285V25.6835H20.565V30.2585H27.435V25.6835H29.715V16.5485H27.435V14.2535ZM27.435 23.4035H25.14V18.8285H22.86V16.5485H25.14V18.8285H27.435V23.4035Z" fill="#F03D3E"/>
<path d="M27.435 2.82349H25.14V5.11849H27.435V2.82349Z" fill="#F03D3E"/>
<path d="M25.14 0.543457H22.86V2.82346H25.14V0.543457Z" fill="#F03D3E"/>
<path d="M22.86 2.82349H20.565V5.11849H22.86V2.82349Z" fill="#F03D3E"/>
<path d="M20.565 5.11847H18.285V9.67847H20.565V5.11847Z" fill="#F03D3E"/>
<path d="M18.285 9.67847H16.005V14.2535H18.285V9.67847Z" fill="#F03D3E"/>
<path d="M16.005 14.2535H13.71V18.8285H16.005V14.2535Z" fill="#F03D3E"/>
<path d="M13.71 18.8284H11.43V23.4034H13.71V18.8284Z" fill="#F03D3E"/>
<path d="M11.43 23.4034H9.13501V27.9784H11.43V23.4034Z" fill="#F03D3E"/>
<path d="M9.13498 27.9785H6.85498V32.5385H9.13498V27.9785Z" fill="#F03D3E"/>
<path d="M6.85501 32.5385H4.57501V37.1135H6.85501V32.5385Z" fill="#F03D3E"/>
<path d="M4.57503 37.1135H2.28003V41.6885H4.57503V37.1135Z" fill="#F03D3E"/>
<path d="M2.28 41.6885H0V46.2635H2.28V41.6885Z" fill="#F03D3E"/>
</g>
<defs>
<clipPath id="clip0_169_10661">
<rect width="48" height="48" fill="white" transform="translate(0 0.543457)"/>
</clipPath>
</defs>
</svg>
