<svg width="55" height="56" viewBox="0 0 55 56" fill="none" xmlns="http://www.w3.org/2000/svg">
<path d="M55 26.7202H52.1123V29.608H55V26.7202Z" fill="black"/>
<path d="M52.1123 29.6079H49.2056V32.4956H52.1123V29.6079Z" fill="black"/>
<path d="M52.1123 23.8135H49.2056V26.7202H52.1123V23.8135Z" fill="black"/>
<path d="M49.2055 32.4961H46.3177V35.4028H49.2055V32.4961Z" fill="black"/>
<path d="M49.2055 20.9258H46.3177V23.8135H49.2055V20.9258Z" fill="black"/>
<path d="M43.4301 44.085H34.7289V46.9728H46.3178V35.4028H43.4301V44.085Z" fill="black"/>
<path d="M26.0466 29.608H23.1589V26.7203H20.2522V23.8135H17.3644V26.7203H14.4767V29.608H17.3644V32.4957H20.2522V35.4025H23.1589V38.2902H26.0466V35.4025H28.9534V32.4957H31.8411V29.608H34.7288V26.7203H37.6356V23.8135H40.5233V20.9258H37.6356V18.019H34.7288V20.9258H31.8411V23.8135H28.9534V26.7203H26.0466V29.608Z" fill="black"/>
<path d="M43.4301 12.2436V20.9259H46.3178V9.33691H34.7289V12.2436H43.4301Z" fill="black"/>
<path d="M34.7288 46.9727H31.8411V49.8794H34.7288V46.9727Z" fill="black"/>
<path d="M34.7288 6.44922H31.8411V9.33696H34.7288V6.44922Z" fill="black"/>
<path d="M31.8411 49.8794H28.9534V52.7671H31.8411V49.8794Z" fill="black"/>
<path d="M31.8411 3.56152H28.9534V6.44926H31.8411V3.56152Z" fill="black"/>
<path d="M28.9534 52.7671H26.0466V55.6548H28.9534V52.7671Z" fill="black"/>
<path d="M28.9534 0.654785H26.0466V3.56152H28.9534V0.654785Z" fill="black"/>
<path d="M26.0467 49.8794H23.1589V52.7671H26.0467V49.8794Z" fill="black"/>
<path d="M26.0467 3.56152H23.1589V6.44926H26.0467V3.56152Z" fill="black"/>
<path d="M23.1589 46.9727H20.2522V49.8794H23.1589V46.9727Z" fill="black"/>
<path d="M23.1589 6.44922H20.2522V9.33696H23.1589V6.44922Z" fill="black"/>
<path d="M11.57 44.085V35.4028H8.68225V46.9728H20.2522V44.085H11.57Z" fill="black"/>
<path d="M11.57 12.2436H20.2522V9.33691H8.68225V20.9259H11.57V12.2436Z" fill="black"/>
<path d="M8.68217 32.4961H5.79443V35.4028H8.68217V32.4961Z" fill="black"/>
<path d="M8.68217 20.9258H5.79443V23.8135H8.68217V20.9258Z" fill="black"/>
<path d="M5.79443 29.6079H2.8877V32.4956H5.79443V29.6079Z" fill="black"/>
<path d="M5.79443 23.8135H2.8877V26.7202H5.79443V23.8135Z" fill="black"/>
<path d="M2.88774 26.7202H0V29.608H2.88774V26.7202Z" fill="black"/>
</svg>
