<svg width="55" height="55" viewBox="0 0 55 55" fill="none" xmlns="http://www.w3.org/2000/svg">
<path d="M34.0484 39.282V36.6695H31.4359V39.282H18.3391V36.6695H15.7266V28.8148H18.3391V26.1852H31.4359V28.8148H34.0484V26.1852H52.3875V28.8148H55V23.5727H44.5328V20.9688H41.9203V23.5813H26.1938V20.9688H23.5813V18.3391H26.1938V15.718H41.9203V18.3305H44.5328V10.4844H41.9203V13.0969H26.1938V10.4844H23.5813V13.0969H2.62969V15.7266H0V23.5813H2.62969V26.1938H5.24219V28.8234H7.87187V26.1938H13.0969V28.8234H10.4844V36.6781H13.0969V39.2906H7.87187V36.6781H5.24219V39.2906H2.62969V41.9203H0V49.775H2.62969V52.3875H55V47.1453H52.3875V49.775H31.4359V47.1453H28.8234V44.5328H31.4359V41.9203H52.3875V44.5328H55V36.6781H52.3875V39.2906L34.0484 39.282ZM10.4844 20.9688H5.24219V18.3391H10.4844V20.9688ZM23.5813 44.5328H20.9688V47.1453H23.5813V49.775H20.9688V47.1453H18.3391V44.5328H20.9688V41.9203H23.5813V44.5328Z" fill="black"/>
<path d="M52.3875 28.8149H49.775V36.6696H52.3875V28.8149Z" fill="black"/>
<path d="M52.3875 44.5244H34.0485V47.1369H52.3875V44.5244Z" fill="black"/>
<path d="M47.1453 34.04H36.6781V36.6697H47.1453V34.04Z" fill="black"/>
<path d="M47.1453 28.8149H36.6781V31.4274H47.1453V28.8149Z" fill="black"/>
<path d="M41.9203 18.3306H28.8234V20.9603H41.9203V18.3306Z" fill="black"/>
<path d="M41.9203 7.86328H28.8234V10.4758H41.9203V7.86328Z" fill="black"/>
<path d="M31.4359 28.8149H28.8234V36.6696H31.4359V28.8149Z" fill="black"/>
<path d="M23.5813 7.86328H20.9688V10.4758H23.5813V7.86328Z" fill="black"/>
<path d="M10.4844 7.86328H5.24219V10.4758H10.4844V7.86328Z" fill="black"/>
<path d="M23.5813 5.23359V7.86328H26.1938V5.23359H41.9203V7.86328H44.5328V2.62109H2.6297V5.23359H23.5813Z" fill="black"/>
<path d="M5.2422 28.8149H2.6297V36.6696H5.2422V28.8149Z" fill="black"/>
<path d="M2.62969 5.2334H0V13.0881H2.62969V5.2334Z" fill="black"/>
</svg>
