<svg width="34" height="51" viewBox="0 0 34 51" fill="none" xmlns="http://www.w3.org/2000/svg">
<path d="M31.7383 38.1505H29.4766V40.6612H27.2V43.1554H24.9383V45.6661H22.6617V48.1603H29.4766V45.6661H31.7383V43.1554H34.0001V35.6562H31.7383V38.1505Z" fill="black"/>
<path d="M29.4767 20.658H31.7384V0.654785H27.2001V3.14904H29.4767V20.658Z" fill="black"/>
<path d="M29.4767 20.6582H27.2001V23.1525H29.4767V20.6582Z" fill="black"/>
<path d="M27.2001 3.14893H24.9384V5.65959H27.2001V3.14893Z" fill="black"/>
<path d="M24.9383 43.1555V40.6613H27.2V38.1506H29.4766V35.6564H31.7383V33.1621H24.9383V35.6564H22.6617V38.1506H20.4V45.6662H22.6617V43.1555H24.9383Z" fill="black"/>
<path d="M27.2 23.1523H22.6617V25.663H27.2V23.1523Z" fill="black"/>
<path d="M24.9383 5.65967H22.6617V8.15392H24.9383V5.65967Z" fill="black"/>
<path d="M22.6618 25.6631H11.3384V28.1573H15.8618V50.6548H18.1384V28.1573H22.6618V25.6631Z" fill="black"/>
<path d="M22.6617 3.14893H20.4V5.65959H22.6617V3.14893Z" fill="black"/>
<path d="M20.4 0.654785H13.6V3.14904H20.4V0.654785Z" fill="black"/>
<path d="M13.6001 3.14893H11.3384V5.65959H13.6001V3.14893Z" fill="black"/>
<path d="M11.3383 35.6564H9.06173V33.1621H2.26172V35.6564H4.52343V38.1506H6.80002V40.6613H9.06173V43.1555H11.3383V45.6662H13.6V38.1506H11.3383V35.6564Z" fill="black"/>
<path d="M11.3382 23.1523H6.79993V25.663H11.3382V23.1523Z" fill="black"/>
<path d="M11.3384 5.65967H9.06177V8.15392H11.3384V5.65967Z" fill="black"/>
<path d="M9.06172 43.1554H6.80001V40.6612H4.52342V38.1505H2.26171V35.6562H0V43.1554H2.26171V45.6661H4.52342V48.1603H11.3383V45.6661H9.06172V43.1554Z" fill="black"/>
<path d="M9.06164 3.14893H6.79993V5.65959H9.06164V3.14893Z" fill="black"/>
<path d="M6.80003 20.6582H4.52344V23.1525H6.80003V20.6582Z" fill="black"/>
<path d="M4.52343 3.14904H6.80002V0.654785H2.26172V20.658H4.52343V3.14904Z" fill="black"/>
</svg>
