<svg width="47" height="49" viewBox="0 0 47 49" fill="none" xmlns="http://www.w3.org/2000/svg">
<path d="M0.612549 25.64H5.17255V23.36H7.46755V21.065H9.74755V18.785H12.0425V16.505H14.3225V14.21H16.6025V11.93H18.8975V9.635H21.1775V7.355H25.7525V9.635H28.0325V11.93H30.3276V14.21H32.6075V16.505H34.8875V18.785H37.1826V21.065H39.4626V23.36H41.7425V25.64H46.3176V21.065H44.0375V18.785H41.7425V16.505H39.4626V14.21H37.1826V11.93H34.8875V9.635H32.6075V7.355H30.3276V5.075H28.0325V2.78H25.7525V0.5H21.1775V2.78H18.8975V5.075H16.6025V7.355H14.3225V9.635H12.0425V11.93H9.74755V14.21H7.46755V16.505H5.17255V18.785H2.89255V21.065H0.612549V25.64Z" fill="black"/>
<path d="M39.4625 46.2199H30.3275V34.7899H28.0325V48.4999H41.7425V27.9199H39.4625V46.2199Z" fill="black"/>
<path d="M39.4626 25.6396H37.1826V27.9196H39.4626V25.6396Z" fill="black"/>
<path d="M37.1826 23.3604H34.8876V25.6404H37.1826V23.3604Z" fill="black"/>
<path d="M34.8875 21.0654H32.6075V23.3604H34.8875V21.0654Z" fill="black"/>
<path d="M32.6076 18.7852H30.3276V21.0652H32.6076V18.7852Z" fill="black"/>
<path d="M30.3275 16.5049H28.0325V18.7849H30.3275V16.5049Z" fill="black"/>
<path d="M28.0326 32.4951H25.7526V34.7901H28.0326V32.4951Z" fill="black"/>
<path d="M28.0326 14.21H25.7526V16.505H28.0326V14.21Z" fill="black"/>
<path d="M25.7526 30.2148H21.1776V32.4948H25.7526V30.2148Z" fill="black"/>
<path d="M25.7526 11.9297H21.1776V14.2097H25.7526V11.9297Z" fill="black"/>
<path d="M21.1775 32.4951H18.8975V34.7901H21.1775V32.4951Z" fill="black"/>
<path d="M21.1775 14.21H18.8975V16.505H21.1775V14.21Z" fill="black"/>
<path d="M18.8975 34.7899H16.6025V46.2199H7.46755V27.9199H5.17255V48.4999H18.8975V34.7899Z" fill="black"/>
<path d="M18.8975 16.5049H16.6025V18.7849H18.8975V16.5049Z" fill="black"/>
<path d="M16.6026 18.7852H14.3226V21.0652H16.6026V18.7852Z" fill="black"/>
<path d="M14.3225 21.0654H12.0425V23.3604H14.3225V21.0654Z" fill="black"/>
<path d="M12.0426 23.3604H9.74756V25.6404H12.0426V23.3604Z" fill="black"/>
<path d="M9.74753 25.6396H7.46753V27.9196H9.74753V25.6396Z" fill="black"/>
</svg>
