<svg width="56" height="56" viewBox="0 0 56 56" fill="none" xmlns="http://www.w3.org/2000/svg">
<g clip-path="url(#clip0_169_10611)">
<path d="M52.8875 38.5278H50.275V41.1403H45.0328V46.3825H39.7906V51.6247H37.1781V54.2372H55.5V51.6247H52.8875V38.5278Z" fill="black"/>
<path d="M52.8875 9.72144H50.275V14.9464H52.8875V9.72144Z" fill="black"/>
<path d="M50.2749 35.8979H47.6453V38.5276H50.2749V35.8979Z" fill="black"/>
<path d="M50.2749 14.9465H47.6453V17.5762H50.2749V14.9465Z" fill="black"/>
<path d="M50.2749 7.0918H47.6453V9.72148H50.2749V7.0918Z" fill="black"/>
<path d="M47.6453 17.5762H45.0328V20.1887H47.6453V17.5762Z" fill="black"/>
<path d="M47.6453 4.47925H45.0328V7.09175H47.6453V4.47925Z" fill="black"/>
<path d="M45.0328 20.1887H42.4203V22.8184H45.0328V20.1887Z" fill="black"/>
<path d="M45.0328 14.9465H42.4203V17.5762H45.0328V14.9465Z" fill="black"/>
<path d="M45.0328 1.84961H39.7906V4.4793H45.0328V1.84961Z" fill="black"/>
<path d="M47.6453 33.2856H39.7906V35.8981H47.6453V33.2856Z" fill="black"/>
<path d="M42.4203 22.8184H39.7906V25.4309H42.4203V22.8184Z" fill="black"/>
<path d="M42.4203 12.334H39.7906V14.9465H42.4203V12.334Z" fill="black"/>
<path d="M39.7906 35.8979H37.1781V38.5276H39.7906V35.8979Z" fill="black"/>
<path d="M39.7906 30.6731H37.1781V33.2856H39.7906V30.6731Z" fill="black"/>
<path d="M39.7906 25.4309H37.1781V28.0434H39.7906V25.4309Z" fill="black"/>
<path d="M39.7906 14.9465H37.1781V17.5762H39.7906V14.9465Z" fill="black"/>
<path d="M39.7906 9.72144H37.1781V12.3339H39.7906V9.72144Z" fill="black"/>
<path d="M39.7906 4.47925H37.1781V7.09175H39.7906V4.47925Z" fill="black"/>
<path d="M37.1782 48.9949H34.5485V51.6246H37.1782V48.9949Z" fill="black"/>
<path d="M37.1782 38.5278H34.5485V41.1403H37.1782V38.5278Z" fill="black"/>
<path d="M37.1782 28.0435H34.5485V30.6731H37.1782V28.0435Z" fill="black"/>
<path d="M37.1782 17.5762H34.5485V20.1887H37.1782V17.5762Z" fill="black"/>
<path d="M37.1782 7.0918H34.5485V9.72148H37.1782V7.0918Z" fill="black"/>
<path d="M34.5484 41.1401H31.9359V48.9948H34.5484V41.1401Z" fill="black"/>
<path d="M34.5484 30.6731H31.9359V33.2856H34.5484V30.6731Z" fill="black"/>
<path d="M34.5484 20.1887H31.9359V22.8184H34.5484V20.1887Z" fill="black"/>
<path d="M34.5484 9.72144H31.9359V12.3339H34.5484V9.72144Z" fill="black"/>
<path d="M31.936 38.5278H29.3235V41.1403H31.936V38.5278Z" fill="black"/>
<path d="M31.936 33.2856H29.3235V35.8981H31.936V33.2856Z" fill="black"/>
<path d="M31.936 22.8184H29.3235V25.4309H31.936V22.8184Z" fill="black"/>
<path d="M31.936 12.334H29.3235V14.9465H31.936V12.334Z" fill="black"/>
<path d="M29.3234 35.8979H26.6937V38.5276H29.3234V35.8979Z" fill="black"/>
<path d="M29.3234 25.4309H26.6937V28.0434H29.3234V25.4309Z" fill="black"/>
<path d="M29.3234 14.9465H26.6937V17.5762H29.3234V14.9465Z" fill="black"/>
<path d="M26.6938 38.5278H24.0813V41.1403H26.6938V38.5278Z" fill="black"/>
<path d="M26.6938 28.0435H24.0813V30.6731H26.6938V28.0435Z" fill="black"/>
<path d="M26.6938 17.5762H24.0813V20.1887H26.6938V17.5762Z" fill="black"/>
<path d="M24.0813 41.1401H21.4688V43.7698H24.0813V41.1401Z" fill="black"/>
<path d="M24.0813 30.6731H21.4688V33.2856H24.0813V30.6731Z" fill="black"/>
<path d="M24.0813 20.1887H21.4688V22.8184H24.0813V20.1887Z" fill="black"/>
<path d="M24.0813 14.9465H21.4688V17.5762H24.0813V14.9465Z" fill="black"/>
<path d="M21.4688 43.77H18.8391V46.3825H21.4688V43.77Z" fill="black"/>
<path d="M21.4688 33.2856H18.8391V35.8981H21.4688V33.2856Z" fill="black"/>
<path d="M21.4688 22.8184H18.8391V25.4309H21.4688V22.8184Z" fill="black"/>
<path d="M21.4688 12.334H18.8391V14.9465H21.4688V12.334Z" fill="black"/>
<path d="M18.8391 46.3823H16.2266V48.9948H18.8391V46.3823Z" fill="black"/>
<path d="M18.8391 35.8979H16.2266V38.5276H18.8391V35.8979Z" fill="black"/>
<path d="M18.8391 25.4309H16.2266V28.0434H18.8391V25.4309Z" fill="black"/>
<path d="M18.8391 9.72144H16.2266V12.3339H18.8391V9.72144Z" fill="black"/>
<path d="M16.2266 48.9949H13.5969V51.6246H16.2266V48.9949Z" fill="black"/>
<path d="M16.2266 38.5278H13.5969V41.1403H16.2266V38.5278Z" fill="black"/>
<path d="M16.2266 28.0435H13.5969V30.6731H16.2266V28.0435Z" fill="black"/>
<path d="M16.2266 22.8184H13.5969V25.4309H16.2266V22.8184Z" fill="black"/>
<path d="M16.2266 7.0918H13.5969V9.72148H16.2266V7.0918Z" fill="black"/>
<path d="M13.5969 46.3823H10.9844V48.9948H13.5969V46.3823Z" fill="black"/>
<path d="M13.5969 41.1401H10.9844V43.7698H13.5969V41.1401Z" fill="black"/>
<path d="M13.5969 30.6731H10.9844V33.2856H13.5969V30.6731Z" fill="black"/>
<path d="M13.5969 20.1887H10.9844V22.8184H13.5969V20.1887Z" fill="black"/>
<path d="M13.5969 4.47925H10.9844V7.09175H13.5969V4.47925Z" fill="black"/>
<path d="M8.37187 48.9948H5.74219V46.3823H3.12969V41.1401H0.5V54.237H13.5969V51.6245H8.37187V48.9948Z" fill="black"/>
<path d="M10.9843 43.77H8.37183V46.3825H10.9843V43.77Z" fill="black"/>
<path d="M10.9843 33.2856H8.37183V35.8981H10.9843V33.2856Z" fill="black"/>
<path d="M10.9843 17.5762H8.37183V20.1887H10.9843V17.5762Z" fill="black"/>
<path d="M10.9844 1.84961H5.74219V4.4793H10.9844V1.84961Z" fill="black"/>
<path d="M8.37187 41.1401H5.74219V43.7698H8.37187V41.1401Z" fill="black"/>
<path d="M8.37187 35.8979H5.74219V38.5276H8.37187V35.8979Z" fill="black"/>
<path d="M8.37187 14.9465H5.74219V17.5762H8.37187V14.9465Z" fill="black"/>
<path d="M5.74214 38.5278H3.12964V41.1403H5.74214V38.5278Z" fill="black"/>
<path d="M5.74214 12.334H3.12964V14.9465H5.74214V12.334Z" fill="black"/>
<path d="M5.74214 4.47925H3.12964V7.09175H5.74214V4.47925Z" fill="black"/>
<path d="M3.12969 7.0918H0.5V12.334H3.12969V7.0918Z" fill="black"/>
</g>
<defs>
<clipPath id="clip0_169_10611">
<rect width="55" height="55" fill="white" transform="translate(0.5 0.543457)"/>
</clipPath>
</defs>
</svg>
