<svg width="49" height="49" viewBox="0 0 49 49" fill="none" xmlns="http://www.w3.org/2000/svg">
<g clip-path="url(#clip0_176_395264)">
<path d="M48.3176 5.0752H46.0226V43.9252H48.3176V5.0752Z" fill="black"/>
<path d="M46.0226 43.9248H43.7426V46.2198H46.0226V43.9248Z" fill="black"/>
<path d="M46.0226 2.78027H43.7426V5.07527H46.0226V2.78027Z" fill="black"/>
<path d="M43.7426 7.35547H41.4476V41.6455H43.7426V7.35547Z" fill="black"/>
<path d="M43.7426 46.2197H4.87756V48.4997H43.7426V46.2197Z" fill="black"/>
<path d="M41.4475 41.6445H7.17255V43.9245H41.4475V41.6445Z" fill="black"/>
<path d="M34.5926 23.3604H32.3126V21.0654H27.7376V23.3604H25.4576V21.0654H20.8826V34.7904H25.4576V27.9354H27.7376V25.6404H30.0326V27.9354H32.3126V34.7904H36.8876V25.6404H34.5926V23.3604Z" fill="black"/>
<path d="M16.3075 21.0654H11.7325V34.7904H16.3075V21.0654Z" fill="black"/>
<path d="M16.3075 14.21H11.7325V18.785H16.3075V14.21Z" fill="black"/>
<path d="M41.4475 5.0752H7.17255V7.3552H41.4475V5.0752Z" fill="black"/>
<path d="M43.7426 0.5H4.87756V2.78H43.7426V0.5Z" fill="black"/>
<path d="M7.17256 7.35547H4.87756V41.6455H7.17256V7.35547Z" fill="black"/>
<path d="M4.8776 43.9248H2.5976V46.2198H4.8776V43.9248Z" fill="black"/>
<path d="M4.8776 2.78027H2.5976V5.07527H4.8776V2.78027Z" fill="black"/>
<path d="M2.59757 5.0752H0.317566V43.9252H2.59757V5.0752Z" fill="black"/>
</g>
<defs>
<clipPath id="clip0_176_395264">
<rect width="48" height="48" fill="white" transform="translate(0.317566 0.5)"/>
</clipPath>
</defs>
</svg>
