<?xml version="1.0" encoding="UTF-8"?>
<svg id="Layer_2" data-name="Layer 2" xmlns="http://www.w3.org/2000/svg" viewBox="0 0 138.14 135.86">
  <defs>
    <style>
      .cls-1 {
        fill: #feebcd;
      }
    </style>
  </defs>
  <g id="Layer_2-2" data-name="Layer 2">
    <path class="cls-1" d="m41.65,36.82c1.68,1.4,3.65,3.02,4.88,4.54.6.73.56,1.17.76,1.89.82,2.82.54,5.37-.63,7.92-2.46,6.27-4.1,12.98-5.18,19.71-1.56,8.54-2.16,18.95,1.94,25.77,2.06,3.44,5.01,6.22,8.24,8.57.2.18.64.47.88.6.94.52,1.84,1.19,2.8,1.67,13.95,7.28,31.89,7.51,47.2,3.7,6.73-1.83,12.96-5.16,18.09-9.88.43-.4,1.25-1.22,1.81-1.5,1.54-.72,3.44-.54,5.18-.38,1.54.39,2.87.98,4.37,1.72,0,0,2.59,1.97,2.59,1.97.95,1.08,1.63,2.02,2.26,3.19,0,0,.33.76.33.76.17.47.2.84.24,1.22.17,1.65.19,3.47-.65,4.88-4.16,5.34-9.87,9.4-15.66,12.87-12.42,7.07-26.87,9.63-41.01,9.81-14.53-.04-29.49-3.36-41.58-11.74-20.22-13.98-23.93-34.35-19.25-57.12,1.56-8.25,3.78-16.35,7.1-24.18.84-1.98,1.81-3.98,3.62-5.51,1.1-.97,2.62-1.8,4.07-2.4.28-.15.68-.22,1.29-.17,2.05.27,4.25,1.12,6.33,2.09h0Z"/>
    <path class="cls-1" d="m3.8,17.27c1.91-1.17,4.2-2.38,6.15-2.86.61-.13,1.04-.1,1.36.02,4.24.9,7.66,3.02,10.59,6.08,6.8,6.47,14.24,12.38,22.2,17.25,11.41,7.36,24.16,9.94,38.1,10.76,8.3.29,18.91.71,26.49-1.31,3.07-.85,6.32-2.47,6.76-5.8.29-3.7-3.43-7.4-6.15-9.9-6.55-5.97-12.03-9.69-20.57-10.2-6.03-.47-12.28-.17-17.92,1.92-3.71,1.27-6.88,3.75-10.1,5.97-1.14.68-3.19.82-4.83.9-.58.08-1.48-.03-2.11-.2-1.29-.37-2.42-.84-3.71-1.48,0,0-2.46-2.14-2.46-2.14-1.17-1.82-2.28-3.76-1.97-5.91.2-2.04.71-4.16,2-5.76,2.01-2.32,4.59-4.07,7.12-5.83C68.5-.44,87.21-2.01,102.98,2.26c7.89,2.3,15.46,7.82,20.92,12.57,5.36,4.62,9.66,9.47,12.39,16.44,4.9,12-.33,26.69-11.21,33.52-10.19,6.6-22.88,6.97-33.97,7.04-14.74-.04-29.44-1.61-43.44-6.92-15.62-6.2-29.14-17.04-41.07-28.63-3.07-2.85-5.56-6.39-6.32-10.7-.13-.93-.48-1.49-.11-2.56.73-1.95,2.14-3.96,3.64-5.73h0Z"/>
  </g>
</svg>