<svg width="49" height="39" viewBox="0 0 49 39" fill="none" xmlns="http://www.w3.org/2000/svg">
<path d="M48.3176 4.65039H46.0226V34.3504H48.3176V4.65039Z" fill="black"/>
<path d="M46.0226 34.3506H43.7426V36.6456H46.0226V34.3506Z" fill="black"/>
<path d="M46.0226 2.35547H43.7426V4.65047H46.0226V2.35547Z" fill="black"/>
<path d="M43.7426 6.93066H41.4626V11.5057H43.7426V6.93066Z" fill="black"/>
<path d="M43.7426 36.6455H4.89258V38.9255H43.7426V36.6455Z" fill="black"/>
<path d="M41.4625 29.79H39.1675V32.07H41.4625V29.79Z" fill="black"/>
<path d="M41.4625 11.5049H39.1675V13.7849H41.4625V11.5049Z" fill="black"/>
<path d="M39.1676 27.4951H36.8876V29.7901H39.1676V27.4951Z" fill="black"/>
<path d="M39.1676 13.7852H36.8876V16.0652H39.1676V13.7852Z" fill="black"/>
<path d="M36.8876 25.2148H34.5926V27.4948H36.8876V25.2148Z" fill="black"/>
<path d="M36.8876 16.0654H34.5926V18.3604H36.8876V16.0654Z" fill="black"/>
<path d="M34.5926 22.9355H32.3126V25.2155H34.5926V22.9355Z" fill="black"/>
<path d="M34.5926 18.3604H32.3126V20.6404H34.5926V18.3604Z" fill="black"/>
<path d="M32.3125 20.6406H27.7375V22.9356H32.3125V20.6406Z" fill="black"/>
<path d="M27.7376 22.9355H20.8826V25.2155H27.7376V22.9355Z" fill="black"/>
<path d="M20.8826 20.6406H16.3076V22.9356H20.8826V20.6406Z" fill="black"/>
<path d="M16.3076 22.9355H14.0276V25.2155H16.3076V22.9355Z" fill="black"/>
<path d="M16.3076 18.3604H14.0276V20.6404H16.3076V18.3604Z" fill="black"/>
<path d="M14.0276 25.2148H11.7476V27.4948H14.0276V25.2148Z" fill="black"/>
<path d="M14.0276 16.0654H11.7476V18.3604H14.0276V16.0654Z" fill="black"/>
<path d="M11.7476 27.4951H9.45258V29.7901H11.7476V27.4951Z" fill="black"/>
<path d="M11.7476 13.7852H9.45258V16.0652H11.7476V13.7852Z" fill="black"/>
<path d="M9.45255 29.79H7.17255V32.07H9.45255V29.79Z" fill="black"/>
<path d="M9.45255 11.5049H7.17255V13.7849H9.45255V11.5049Z" fill="black"/>
<path d="M43.7426 0.0751953H4.89258V2.3552H43.7426V0.0751953Z" fill="black"/>
<path d="M7.17258 6.93066H4.89258V11.5057H7.17258V6.93066Z" fill="black"/>
<path d="M4.8926 34.3506H2.5976V36.6456H4.8926V34.3506Z" fill="black"/>
<path d="M4.8926 2.35547H2.5976V4.65047H4.8926V2.35547Z" fill="black"/>
<path d="M2.59757 4.65039H0.317566V34.3504H2.59757V4.65039Z" fill="black"/>
</svg>
