<svg width="55" height="56" viewBox="0 0 55 56" fill="none" xmlns="http://www.w3.org/2000/svg">
<g clip-path="url(#clip0_169_10711)">
<path d="M55.0001 39.618H52.3704V50.0852H55.0001V39.618Z" fill="black"/>
<path d="M52.3703 50.0852H49.7578V52.7149H52.3703V50.0852Z" fill="black"/>
<path d="M52.3703 36.9883H49.7578V39.618H52.3703V36.9883Z" fill="black"/>
<path d="M49.7578 52.7148H39.2734V55.3273H49.7578V52.7148Z" fill="black"/>
<path d="M49.7578 36.9883V34.3758H41.9031V31.7633H39.2734V36.9883H49.7578Z" fill="black"/>
<path d="M39.2734 50.0852H36.6609V52.7149H39.2734V50.0852Z" fill="black"/>
<path d="M39.2734 36.9883H36.6609V39.618H39.2734V36.9883Z" fill="black"/>
<path d="M39.2734 26.5211H36.6609V31.7633H39.2734V26.5211Z" fill="black"/>
<path d="M36.661 39.618H34.0313V44.843H20.9516V39.618H18.3219V50.0852H20.9516V47.4727H34.0313V50.0852H36.661V39.618Z" fill="black"/>
<path d="M36.6609 21.2789H34.0312V26.5211H36.6609V21.2789Z" fill="black"/>
<path d="M36.6609 5.56958H34.0312V16.0368H36.6609V5.56958Z" fill="black"/>
<path d="M34.0312 2.93994H31.4187V5.56963H34.0312V2.93994Z" fill="black"/>
<path d="M31.4187 0.327393H20.9515V2.93989H31.4187V0.327393Z" fill="black"/>
<path d="M34.0313 21.2789V16.0367H31.4188V18.6664H20.9516V16.0367H18.3219V21.2789H34.0313Z" fill="black"/>
<path d="M20.9516 2.93994H18.3219V5.56963H20.9516V2.93994Z" fill="black"/>
<path d="M18.3218 50.0852H15.7094V52.7149H18.3218V50.0852Z" fill="black"/>
<path d="M18.3218 36.9883H15.7094V39.618H18.3218V36.9883Z" fill="black"/>
<path d="M18.3218 21.2789H15.7094V26.5211H18.3218V21.2789Z" fill="black"/>
<path d="M18.3218 5.56958H15.7094V16.0368H18.3218V5.56958Z" fill="black"/>
<path d="M15.7094 26.5211H13.0797V31.7633H15.7094V26.5211Z" fill="black"/>
<path d="M15.7094 52.7148H5.22498V55.3273H15.7094V52.7148Z" fill="black"/>
<path d="M15.7094 36.9883V34.3758H13.0797V31.7633H10.4672V34.3758H5.22498V36.9883H15.7094Z" fill="black"/>
<path d="M5.22505 50.0852H2.61255V52.7149H5.22505V50.0852Z" fill="black"/>
<path d="M5.22505 36.9883H2.61255V39.618H5.22505V36.9883Z" fill="black"/>
<path d="M2.6125 39.618H0V50.0852H2.6125V39.618Z" fill="black"/>
</g>
<defs>
<clipPath id="clip0_169_10711">
<rect width="55" height="55" fill="white" transform="translate(0 0.327393)"/>
</clipPath>
</defs>
</svg>
