<svg width="56" height="55" viewBox="0 0 56 55" fill="none" xmlns="http://www.w3.org/2000/svg">
<path d="M52.7571 41.2499H49.9963V38.5071H47.2535V35.7463H44.4927V30.2607H41.7499V35.7463H39.0071V38.5071H36.2463V41.2499H30.7607V43.9927H36.2463V46.7535H39.0071V49.4963H41.7499V52.2571H44.4927V54.9999H52.7571V52.2571H55.4999V43.9927H52.7571V41.2499ZM52.7571 49.4963H49.9963V46.7535H47.2535V43.9927H44.4927V41.2499H47.2535V43.9927H49.9963V46.7535H52.7571V49.4963Z" fill="black"/>
<path d="M47.2533 16.5107H44.4924V30.2607H47.2533V16.5107Z" fill="black"/>
<path d="M44.4928 11.0068H41.75V16.5104H44.4928V11.0068Z" fill="black"/>
<path d="M41.7497 8.26465H39.007V11.0074H41.7497V8.26465Z" fill="black"/>
<path d="M39.007 5.50391H36.2462V8.26473H39.007V5.50391Z" fill="black"/>
<path d="M33.5035 33.0039H30.7607V35.7467H33.5035V33.0039Z" fill="black"/>
<path d="M36.2463 2.76074H30.7607V5.50352H36.2463V2.76074Z" fill="black"/>
<path d="M30.7607 35.7461H17.0107V38.5069H30.7607V35.7461Z" fill="black"/>
<path d="M30.7608 21.9961H28V27.4997H30.7608V21.9961Z" fill="black"/>
<path d="M30.7607 43.9932H17.0107V46.754H30.7607V43.9932Z" fill="black"/>
<path d="M27.9996 30.2607H19.7532V33.0035H27.9996V30.2607Z" fill="black"/>
<path d="M30.7607 0H17.0107V2.76083H30.7607V0Z" fill="black"/>
<path d="M19.7535 21.9961H17.0107V27.4997H19.7535V21.9961Z" fill="black"/>
<path d="M17.0106 41.25H11.507V43.9928H17.0106V41.25Z" fill="black"/>
<path d="M17.0108 33.0039H14.25V35.7467H17.0108V33.0039Z" fill="black"/>
<path d="M17.0106 2.76074H11.507V5.50352H17.0106V2.76074Z" fill="black"/>
<path d="M14.2497 19.2538H17.0106V16.511H30.7606V19.2538H33.5033V33.0038H36.2461V13.7502H33.5033V11.0074H30.7606V8.26465H17.0106V11.0074H14.2497V13.7502H11.507V33.0038H14.2497V19.2538Z" fill="black"/>
<path d="M11.507 38.5068H8.74622V41.2496H11.507V38.5068Z" fill="black"/>
<path d="M11.507 5.50391H8.74622V8.26473H11.507V5.50391Z" fill="black"/>
<path d="M8.74657 35.7461H6.00378V38.5069H8.74657V35.7461Z" fill="black"/>
<path d="M8.74657 8.26465H6.00378V11.0074H8.74657V8.26465Z" fill="black"/>
<path d="M6.00352 30.2607H3.26074V35.7463H6.00352V30.2607Z" fill="black"/>
<path d="M6.00352 11.0068H3.26074V16.5104H6.00352V11.0068Z" fill="black"/>
<path d="M3.26083 16.5107H0.5V30.2607H3.26083V16.5107Z" fill="black"/>
</svg>
